<mxfile host="Electron" agent="Mozilla/5.0 (Windows NT 10.0; Win64; x64) AppleWebKit/537.36 (KHTML, like Gecko) draw.io/26.0.4 Chrome/128.0.6613.186 Electron/32.2.5 Safari/537.36" version="26.0.4">
  <diagram name="Infra" id="YatAFZ8pXMZEUlFo9LS2">
    <mxGraphModel dx="2849" dy="1266" grid="1" gridSize="10" guides="1" tooltips="1" connect="1" arrows="1" fold="1" page="0" pageScale="1" pageWidth="827" pageHeight="1169" background="none" math="0" shadow="0">
      <root>
        <mxCell id="0" />
        <mxCell id="1" parent="0" />
        <mxCell id="5jcE9SZnteggqBsjyxye-87" style="edgeStyle=none;curved=1;rounded=0;orthogonalLoop=1;jettySize=auto;html=1;entryX=0;entryY=0.5;entryDx=0;entryDy=0;fontSize=12;startSize=8;endSize=8;" edge="1" parent="1" source="5jcE9SZnteggqBsjyxye-3" target="5jcE9SZnteggqBsjyxye-86">
          <mxGeometry relative="1" as="geometry" />
        </mxCell>
        <mxCell id="5jcE9SZnteggqBsjyxye-3" value="UsuÃ¡rio" style="verticalLabelPosition=bottom;html=1;verticalAlign=top;align=center;strokeColor=none;fillColor=#00BEF2;shape=mxgraph.azure.user;" vertex="1" parent="1">
          <mxGeometry x="-550" y="78.75" width="47.5" height="50" as="geometry" />
        </mxCell>
        <mxCell id="5jcE9SZnteggqBsjyxye-4" value="AWS Cloud" style="points=[[0,0],[0.25,0],[0.5,0],[0.75,0],[1,0],[1,0.25],[1,0.5],[1,0.75],[1,1],[0.75,1],[0.5,1],[0.25,1],[0,1],[0,0.75],[0,0.5],[0,0.25]];outlineConnect=0;gradientColor=none;html=1;whiteSpace=wrap;fontSize=12;fontStyle=0;container=1;pointerEvents=0;collapsible=0;recursiveResize=0;shape=mxgraph.aws4.group;grIcon=mxgraph.aws4.group_aws_cloud_alt;strokeColor=#232F3E;fillColor=none;verticalAlign=top;align=left;spacingLeft=30;fontColor=#232F3E;dashed=0;" vertex="1" parent="1">
          <mxGeometry x="-230" y="40" width="970" height="700" as="geometry" />
        </mxCell>
        <mxCell id="5jcE9SZnteggqBsjyxye-5" value="" style="fillColor=none;strokeColor=#5A6C86;dashed=1;verticalAlign=top;fontStyle=0;fontColor=#5A6C86;whiteSpace=wrap;html=1;movable=1;resizable=1;rotatable=1;deletable=1;editable=1;locked=0;connectable=1;" vertex="1" parent="5jcE9SZnteggqBsjyxye-4">
          <mxGeometry x="64" y="130" width="746" height="550" as="geometry" />
        </mxCell>
        <mxCell id="5jcE9SZnteggqBsjyxye-6" value="Cluster" style="aspect=fixed;sketch=0;html=1;dashed=0;whitespace=wrap;verticalLabelPosition=bottom;verticalAlign=top;fillColor=#2875E2;strokeColor=#ffffff;points=[[0.005,0.63,0],[0.1,0.2,0],[0.9,0.2,0],[0.5,0,0],[0.995,0.63,0],[0.72,0.99,0],[0.5,1,0],[0.28,0.99,0]];shape=mxgraph.kubernetes.icon2;prIcon=api" vertex="1" parent="5jcE9SZnteggqBsjyxye-4">
          <mxGeometry x="40" y="108" width="50" height="48" as="geometry" />
        </mxCell>
        <mxCell id="5jcE9SZnteggqBsjyxye-7" value="" style="fillColor=none;strokeColor=#5A6C86;dashed=1;verticalAlign=top;fontStyle=0;fontColor=#5A6C86;whiteSpace=wrap;html=1;movable=1;resizable=1;rotatable=1;deletable=1;editable=1;locked=0;connectable=1;" vertex="1" parent="5jcE9SZnteggqBsjyxye-4">
          <mxGeometry x="106" y="170" width="654" height="480" as="geometry" />
        </mxCell>
        <mxCell id="5jcE9SZnteggqBsjyxye-8" value="" style="aspect=fixed;sketch=0;html=1;dashed=0;whitespace=wrap;verticalLabelPosition=bottom;verticalAlign=top;fillColor=#2875E2;strokeColor=#ffffff;points=[[0.005,0.63,0],[0.1,0.2,0],[0.9,0.2,0],[0.5,0,0],[0.995,0.63,0],[0.72,0.99,0],[0.5,1,0],[0.28,0.99,0]];shape=mxgraph.kubernetes.icon2;kubernetesLabel=1;prIcon=node" vertex="1" parent="5jcE9SZnteggqBsjyxye-4">
          <mxGeometry x="90" y="149" width="50" height="48" as="geometry" />
        </mxCell>
        <mxCell id="5jcE9SZnteggqBsjyxye-9" value="" style="fillColor=none;strokeColor=#5A6C86;dashed=1;verticalAlign=top;fontStyle=0;fontColor=#5A6C86;whiteSpace=wrap;html=1;movable=1;resizable=1;rotatable=1;deletable=1;editable=1;locked=0;connectable=1;" vertex="1" parent="5jcE9SZnteggqBsjyxye-4">
          <mxGeometry x="162" y="219" width="558" height="397" as="geometry" />
        </mxCell>
        <mxCell id="5jcE9SZnteggqBsjyxye-10" value="" style="aspect=fixed;sketch=0;html=1;dashed=0;whitespace=wrap;verticalLabelPosition=bottom;verticalAlign=top;fillColor=#2875E2;strokeColor=#ffffff;points=[[0.005,0.63,0],[0.1,0.2,0],[0.9,0.2,0],[0.5,0,0],[0.995,0.63,0],[0.72,0.99,0],[0.5,1,0],[0.28,0.99,0]];shape=mxgraph.kubernetes.icon2;kubernetesLabel=1;prIcon=ns" vertex="1" parent="5jcE9SZnteggqBsjyxye-4">
          <mxGeometry x="137" y="194" width="50" height="48" as="geometry" />
        </mxCell>
        <mxCell id="5jcE9SZnteggqBsjyxye-46" value="" style="group" vertex="1" connectable="0" parent="5jcE9SZnteggqBsjyxye-4">
          <mxGeometry x="460" y="258" width="239" height="327" as="geometry" />
        </mxCell>
        <mxCell id="5jcE9SZnteggqBsjyxye-29" style="edgeStyle=none;curved=1;rounded=0;orthogonalLoop=1;jettySize=auto;html=1;entryX=0.5;entryY=0;entryDx=0;entryDy=0;fontSize=12;startSize=8;endSize=8;" edge="1" parent="5jcE9SZnteggqBsjyxye-46" source="5jcE9SZnteggqBsjyxye-30" target="5jcE9SZnteggqBsjyxye-40">
          <mxGeometry relative="1" as="geometry" />
        </mxCell>
        <mxCell id="5jcE9SZnteggqBsjyxye-30" value="" style="aspect=fixed;sketch=0;html=1;dashed=0;whitespace=wrap;verticalLabelPosition=bottom;verticalAlign=top;fillColor=#2875E2;strokeColor=#ffffff;points=[[0.005,0.63,0],[0.1,0.2,0],[0.9,0.2,0],[0.5,0,0],[0.995,0.63,0],[0.72,0.99,0],[0.5,1,0],[0.28,0.99,0]];shape=mxgraph.kubernetes.icon2;kubernetesLabel=1;prIcon=svc" vertex="1" parent="5jcE9SZnteggqBsjyxye-46">
          <mxGeometry x="104" width="50" height="48" as="geometry" />
        </mxCell>
        <mxCell id="5jcE9SZnteggqBsjyxye-31" value="`framepack-worker" style="rounded=0;whiteSpace=wrap;html=1;rotation=-90;strokeColor=none;" vertex="1" parent="5jcE9SZnteggqBsjyxye-46">
          <mxGeometry x="-50" y="148" width="120" height="20" as="geometry" />
        </mxCell>
        <mxCell id="5jcE9SZnteggqBsjyxye-32" value="" style="aspect=fixed;sketch=0;html=1;dashed=0;whitespace=wrap;verticalLabelPosition=bottom;verticalAlign=top;fillColor=#2875E2;strokeColor=#ffffff;points=[[0.005,0.63,0],[0.1,0.2,0],[0.9,0.2,0],[0.5,0,0],[0.995,0.63,0],[0.72,0.99,0],[0.5,1,0],[0.28,0.99,0]];shape=mxgraph.kubernetes.icon2;kubernetesLabel=1;prIcon=pod" vertex="1" parent="5jcE9SZnteggqBsjyxye-46">
          <mxGeometry x="70" y="100" width="50" height="48" as="geometry" />
        </mxCell>
        <mxCell id="5jcE9SZnteggqBsjyxye-33" value="" style="aspect=fixed;sketch=0;html=1;dashed=0;whitespace=wrap;verticalLabelPosition=bottom;verticalAlign=top;fillColor=#2875E2;strokeColor=#ffffff;points=[[0.005,0.63,0],[0.1,0.2,0],[0.9,0.2,0],[0.5,0,0],[0.995,0.63,0],[0.72,0.99,0],[0.5,1,0],[0.28,0.99,0]];shape=mxgraph.kubernetes.icon2;kubernetesLabel=1;prIcon=pod" vertex="1" parent="5jcE9SZnteggqBsjyxye-46">
          <mxGeometry x="130" y="100" width="50" height="48" as="geometry" />
        </mxCell>
        <mxCell id="5jcE9SZnteggqBsjyxye-34" style="edgeStyle=none;curved=1;rounded=0;orthogonalLoop=1;jettySize=auto;html=1;fontSize=12;startSize=8;endSize=8;" edge="1" parent="5jcE9SZnteggqBsjyxye-46" source="5jcE9SZnteggqBsjyxye-35" target="5jcE9SZnteggqBsjyxye-40">
          <mxGeometry relative="1" as="geometry" />
        </mxCell>
        <mxCell id="5jcE9SZnteggqBsjyxye-35" value="" style="aspect=fixed;sketch=0;html=1;dashed=0;whitespace=wrap;verticalLabelPosition=bottom;verticalAlign=top;fillColor=#2875E2;strokeColor=#ffffff;points=[[0.005,0.63,0],[0.1,0.2,0],[0.9,0.2,0],[0.5,0,0],[0.995,0.63,0],[0.72,0.99,0],[0.5,1,0],[0.28,0.99,0]];shape=mxgraph.kubernetes.icon2;kubernetesLabel=1;prIcon=deploy" vertex="1" parent="5jcE9SZnteggqBsjyxye-46">
          <mxGeometry x="102.96000000000004" y="188" width="52.08" height="50" as="geometry" />
        </mxCell>
        <mxCell id="5jcE9SZnteggqBsjyxye-36" value="" style="aspect=fixed;sketch=0;html=1;dashed=0;whitespace=wrap;verticalLabelPosition=bottom;verticalAlign=top;fillColor=#2875E2;strokeColor=#ffffff;points=[[0.005,0.63,0],[0.1,0.2,0],[0.9,0.2,0],[0.5,0,0],[0.995,0.63,0],[0.72,0.99,0],[0.5,1,0],[0.28,0.99,0]];shape=mxgraph.kubernetes.icon2;kubernetesLabel=1;prIcon=hpa" vertex="1" parent="5jcE9SZnteggqBsjyxye-46">
          <mxGeometry x="19" y="279" width="50" height="48" as="geometry" />
        </mxCell>
        <mxCell id="5jcE9SZnteggqBsjyxye-37" value="" style="aspect=fixed;sketch=0;html=1;dashed=0;whitespace=wrap;verticalLabelPosition=bottom;verticalAlign=top;fillColor=#2875E2;strokeColor=#ffffff;points=[[0.005,0.63,0],[0.1,0.2,0],[0.9,0.2,0],[0.5,0,0],[0.995,0.63,0],[0.72,0.99,0],[0.5,1,0],[0.28,0.99,0]];shape=mxgraph.kubernetes.icon2;kubernetesLabel=1;prIcon=limits" vertex="1" parent="5jcE9SZnteggqBsjyxye-46">
          <mxGeometry x="76" y="279" width="50" height="48" as="geometry" />
        </mxCell>
        <mxCell id="5jcE9SZnteggqBsjyxye-38" value="" style="aspect=fixed;sketch=0;html=1;dashed=0;whitespace=wrap;verticalLabelPosition=bottom;verticalAlign=top;fillColor=#2875E2;strokeColor=#ffffff;points=[[0.005,0.63,0],[0.1,0.2,0],[0.9,0.2,0],[0.5,0,0],[0.995,0.63,0],[0.72,0.99,0],[0.5,1,0],[0.28,0.99,0]];shape=mxgraph.kubernetes.icon2;kubernetesLabel=1;prIcon=secret" vertex="1" parent="5jcE9SZnteggqBsjyxye-46">
          <mxGeometry x="132" y="279" width="50" height="48" as="geometry" />
        </mxCell>
        <mxCell id="5jcE9SZnteggqBsjyxye-39" value="" style="aspect=fixed;sketch=0;html=1;dashed=0;whitespace=wrap;verticalLabelPosition=bottom;verticalAlign=top;fillColor=#2875E2;strokeColor=#ffffff;points=[[0.005,0.63,0],[0.1,0.2,0],[0.9,0.2,0],[0.5,0,0],[0.995,0.63,0],[0.72,0.99,0],[0.5,1,0],[0.28,0.99,0]];shape=mxgraph.kubernetes.icon2;kubernetesLabel=1;prIcon=limits" vertex="1" parent="5jcE9SZnteggqBsjyxye-46">
          <mxGeometry x="189" y="279" width="50" height="48" as="geometry" />
        </mxCell>
        <mxCell id="5jcE9SZnteggqBsjyxye-40" value="" style="rounded=1;whiteSpace=wrap;html=1;fillColor=none;" vertex="1" parent="5jcE9SZnteggqBsjyxye-46">
          <mxGeometry x="58" y="84.5" width="142" height="79" as="geometry" />
        </mxCell>
        <mxCell id="5jcE9SZnteggqBsjyxye-41" style="edgeStyle=orthogonalEdgeStyle;rounded=0;orthogonalLoop=1;jettySize=auto;html=1;entryX=0.5;entryY=1;entryDx=0;entryDy=0;entryPerimeter=0;fontSize=12;startSize=8;endSize=8;exitX=0.5;exitY=0;exitDx=0;exitDy=0;exitPerimeter=0;" edge="1" parent="5jcE9SZnteggqBsjyxye-46" source="5jcE9SZnteggqBsjyxye-36" target="5jcE9SZnteggqBsjyxye-35">
          <mxGeometry relative="1" as="geometry">
            <Array as="points">
              <mxPoint x="44" y="257" />
              <mxPoint x="129" y="257" />
            </Array>
          </mxGeometry>
        </mxCell>
        <mxCell id="5jcE9SZnteggqBsjyxye-42" style="edgeStyle=orthogonalEdgeStyle;rounded=0;orthogonalLoop=1;jettySize=auto;html=1;entryX=0.5;entryY=1;entryDx=0;entryDy=0;entryPerimeter=0;fontSize=12;startSize=8;endSize=8;" edge="1" parent="5jcE9SZnteggqBsjyxye-46" source="5jcE9SZnteggqBsjyxye-37" target="5jcE9SZnteggqBsjyxye-35">
          <mxGeometry relative="1" as="geometry">
            <Array as="points">
              <mxPoint x="101" y="257" />
              <mxPoint x="129" y="257" />
            </Array>
          </mxGeometry>
        </mxCell>
        <mxCell id="5jcE9SZnteggqBsjyxye-43" style="edgeStyle=orthogonalEdgeStyle;rounded=0;orthogonalLoop=1;jettySize=auto;html=1;entryX=0.5;entryY=1;entryDx=0;entryDy=0;entryPerimeter=0;fontSize=12;startSize=8;endSize=8;" edge="1" parent="5jcE9SZnteggqBsjyxye-46" source="5jcE9SZnteggqBsjyxye-38" target="5jcE9SZnteggqBsjyxye-35">
          <mxGeometry relative="1" as="geometry">
            <Array as="points">
              <mxPoint x="157" y="257" />
              <mxPoint x="129" y="257" />
            </Array>
          </mxGeometry>
        </mxCell>
        <mxCell id="5jcE9SZnteggqBsjyxye-44" style="edgeStyle=orthogonalEdgeStyle;rounded=0;orthogonalLoop=1;jettySize=auto;html=1;entryX=0.5;entryY=1;entryDx=0;entryDy=0;entryPerimeter=0;fontSize=12;startSize=8;endSize=8;" edge="1" parent="5jcE9SZnteggqBsjyxye-46" source="5jcE9SZnteggqBsjyxye-39" target="5jcE9SZnteggqBsjyxye-35">
          <mxGeometry relative="1" as="geometry">
            <Array as="points">
              <mxPoint x="214" y="257" />
              <mxPoint x="129" y="257" />
            </Array>
          </mxGeometry>
        </mxCell>
        <mxCell id="5jcE9SZnteggqBsjyxye-45" value="" style="aspect=fixed;sketch=0;html=1;dashed=0;whitespace=wrap;verticalLabelPosition=bottom;verticalAlign=top;fillColor=#2875E2;strokeColor=#ffffff;points=[[0.005,0.63,0],[0.1,0.2,0],[0.9,0.2,0],[0.5,0,0],[0.995,0.63,0],[0.72,0.99,0],[0.5,1,0],[0.28,0.99,0]];shape=mxgraph.kubernetes.icon2;kubernetesLabel=1;prIcon=rs" vertex="1" parent="5jcE9SZnteggqBsjyxye-46">
          <mxGeometry x="46" y="67" width="30" height="28.8" as="geometry" />
        </mxCell>
        <mxCell id="5jcE9SZnteggqBsjyxye-47" value="" style="group" vertex="1" connectable="0" parent="5jcE9SZnteggqBsjyxye-4">
          <mxGeometry x="180" y="255" width="239" height="327" as="geometry" />
        </mxCell>
        <mxCell id="5jcE9SZnteggqBsjyxye-23" style="edgeStyle=none;curved=1;rounded=0;orthogonalLoop=1;jettySize=auto;html=1;entryX=0.5;entryY=0;entryDx=0;entryDy=0;fontSize=12;startSize=8;endSize=8;" edge="1" parent="5jcE9SZnteggqBsjyxye-47" source="5jcE9SZnteggqBsjyxye-11" target="5jcE9SZnteggqBsjyxye-21">
          <mxGeometry relative="1" as="geometry" />
        </mxCell>
        <mxCell id="5jcE9SZnteggqBsjyxye-11" value="" style="aspect=fixed;sketch=0;html=1;dashed=0;whitespace=wrap;verticalLabelPosition=bottom;verticalAlign=top;fillColor=#2875E2;strokeColor=#ffffff;points=[[0.005,0.63,0],[0.1,0.2,0],[0.9,0.2,0],[0.5,0,0],[0.995,0.63,0],[0.72,0.99,0],[0.5,1,0],[0.28,0.99,0]];shape=mxgraph.kubernetes.icon2;kubernetesLabel=1;prIcon=svc" vertex="1" parent="5jcE9SZnteggqBsjyxye-47">
          <mxGeometry x="104" width="50" height="48" as="geometry" />
        </mxCell>
        <mxCell id="5jcE9SZnteggqBsjyxye-12" value="`framepack-webapi" style="rounded=0;whiteSpace=wrap;html=1;rotation=-90;strokeColor=none;" vertex="1" parent="5jcE9SZnteggqBsjyxye-47">
          <mxGeometry x="-50" y="148" width="120" height="20" as="geometry" />
        </mxCell>
        <mxCell id="5jcE9SZnteggqBsjyxye-14" value="" style="aspect=fixed;sketch=0;html=1;dashed=0;whitespace=wrap;verticalLabelPosition=bottom;verticalAlign=top;fillColor=#2875E2;strokeColor=#ffffff;points=[[0.005,0.63,0],[0.1,0.2,0],[0.9,0.2,0],[0.5,0,0],[0.995,0.63,0],[0.72,0.99,0],[0.5,1,0],[0.28,0.99,0]];shape=mxgraph.kubernetes.icon2;kubernetesLabel=1;prIcon=pod" vertex="1" parent="5jcE9SZnteggqBsjyxye-47">
          <mxGeometry x="70" y="100" width="50" height="48" as="geometry" />
        </mxCell>
        <mxCell id="5jcE9SZnteggqBsjyxye-15" value="" style="aspect=fixed;sketch=0;html=1;dashed=0;whitespace=wrap;verticalLabelPosition=bottom;verticalAlign=top;fillColor=#2875E2;strokeColor=#ffffff;points=[[0.005,0.63,0],[0.1,0.2,0],[0.9,0.2,0],[0.5,0,0],[0.995,0.63,0],[0.72,0.99,0],[0.5,1,0],[0.28,0.99,0]];shape=mxgraph.kubernetes.icon2;kubernetesLabel=1;prIcon=pod" vertex="1" parent="5jcE9SZnteggqBsjyxye-47">
          <mxGeometry x="130" y="100" width="50" height="48" as="geometry" />
        </mxCell>
        <mxCell id="5jcE9SZnteggqBsjyxye-22" style="edgeStyle=none;curved=1;rounded=0;orthogonalLoop=1;jettySize=auto;html=1;fontSize=12;startSize=8;endSize=8;" edge="1" parent="5jcE9SZnteggqBsjyxye-47" source="5jcE9SZnteggqBsjyxye-16" target="5jcE9SZnteggqBsjyxye-21">
          <mxGeometry relative="1" as="geometry" />
        </mxCell>
        <mxCell id="5jcE9SZnteggqBsjyxye-16" value="" style="aspect=fixed;sketch=0;html=1;dashed=0;whitespace=wrap;verticalLabelPosition=bottom;verticalAlign=top;fillColor=#2875E2;strokeColor=#ffffff;points=[[0.005,0.63,0],[0.1,0.2,0],[0.9,0.2,0],[0.5,0,0],[0.995,0.63,0],[0.72,0.99,0],[0.5,1,0],[0.28,0.99,0]];shape=mxgraph.kubernetes.icon2;kubernetesLabel=1;prIcon=deploy" vertex="1" parent="5jcE9SZnteggqBsjyxye-47">
          <mxGeometry x="102.95999999999998" y="188" width="52.08" height="50" as="geometry" />
        </mxCell>
        <mxCell id="5jcE9SZnteggqBsjyxye-17" value="" style="aspect=fixed;sketch=0;html=1;dashed=0;whitespace=wrap;verticalLabelPosition=bottom;verticalAlign=top;fillColor=#2875E2;strokeColor=#ffffff;points=[[0.005,0.63,0],[0.1,0.2,0],[0.9,0.2,0],[0.5,0,0],[0.995,0.63,0],[0.72,0.99,0],[0.5,1,0],[0.28,0.99,0]];shape=mxgraph.kubernetes.icon2;kubernetesLabel=1;prIcon=hpa" vertex="1" parent="5jcE9SZnteggqBsjyxye-47">
          <mxGeometry x="19" y="279" width="50" height="48" as="geometry" />
        </mxCell>
        <mxCell id="5jcE9SZnteggqBsjyxye-18" value="" style="aspect=fixed;sketch=0;html=1;dashed=0;whitespace=wrap;verticalLabelPosition=bottom;verticalAlign=top;fillColor=#2875E2;strokeColor=#ffffff;points=[[0.005,0.63,0],[0.1,0.2,0],[0.9,0.2,0],[0.5,0,0],[0.995,0.63,0],[0.72,0.99,0],[0.5,1,0],[0.28,0.99,0]];shape=mxgraph.kubernetes.icon2;kubernetesLabel=1;prIcon=limits" vertex="1" parent="5jcE9SZnteggqBsjyxye-47">
          <mxGeometry x="76" y="279" width="50" height="48" as="geometry" />
        </mxCell>
        <mxCell id="5jcE9SZnteggqBsjyxye-19" value="" style="aspect=fixed;sketch=0;html=1;dashed=0;whitespace=wrap;verticalLabelPosition=bottom;verticalAlign=top;fillColor=#2875E2;strokeColor=#ffffff;points=[[0.005,0.63,0],[0.1,0.2,0],[0.9,0.2,0],[0.5,0,0],[0.995,0.63,0],[0.72,0.99,0],[0.5,1,0],[0.28,0.99,0]];shape=mxgraph.kubernetes.icon2;kubernetesLabel=1;prIcon=secret" vertex="1" parent="5jcE9SZnteggqBsjyxye-47">
          <mxGeometry x="132" y="279" width="50" height="48" as="geometry" />
        </mxCell>
        <mxCell id="5jcE9SZnteggqBsjyxye-20" value="" style="aspect=fixed;sketch=0;html=1;dashed=0;whitespace=wrap;verticalLabelPosition=bottom;verticalAlign=top;fillColor=#2875E2;strokeColor=#ffffff;points=[[0.005,0.63,0],[0.1,0.2,0],[0.9,0.2,0],[0.5,0,0],[0.995,0.63,0],[0.72,0.99,0],[0.5,1,0],[0.28,0.99,0]];shape=mxgraph.kubernetes.icon2;kubernetesLabel=1;prIcon=limits" vertex="1" parent="5jcE9SZnteggqBsjyxye-47">
          <mxGeometry x="189" y="279" width="50" height="48" as="geometry" />
        </mxCell>
        <mxCell id="5jcE9SZnteggqBsjyxye-21" value="" style="rounded=1;whiteSpace=wrap;html=1;fillColor=none;" vertex="1" parent="5jcE9SZnteggqBsjyxye-47">
          <mxGeometry x="58" y="84.5" width="142" height="79" as="geometry" />
        </mxCell>
        <mxCell id="5jcE9SZnteggqBsjyxye-25" style="edgeStyle=orthogonalEdgeStyle;rounded=0;orthogonalLoop=1;jettySize=auto;html=1;entryX=0.5;entryY=1;entryDx=0;entryDy=0;entryPerimeter=0;fontSize=12;startSize=8;endSize=8;exitX=0.5;exitY=0;exitDx=0;exitDy=0;exitPerimeter=0;" edge="1" parent="5jcE9SZnteggqBsjyxye-47" source="5jcE9SZnteggqBsjyxye-17" target="5jcE9SZnteggqBsjyxye-16">
          <mxGeometry relative="1" as="geometry">
            <Array as="points">
              <mxPoint x="44" y="257" />
              <mxPoint x="129" y="257" />
            </Array>
          </mxGeometry>
        </mxCell>
        <mxCell id="5jcE9SZnteggqBsjyxye-26" style="edgeStyle=orthogonalEdgeStyle;rounded=0;orthogonalLoop=1;jettySize=auto;html=1;entryX=0.5;entryY=1;entryDx=0;entryDy=0;entryPerimeter=0;fontSize=12;startSize=8;endSize=8;" edge="1" parent="5jcE9SZnteggqBsjyxye-47" source="5jcE9SZnteggqBsjyxye-18" target="5jcE9SZnteggqBsjyxye-16">
          <mxGeometry relative="1" as="geometry">
            <Array as="points">
              <mxPoint x="101" y="257" />
              <mxPoint x="129" y="257" />
            </Array>
          </mxGeometry>
        </mxCell>
        <mxCell id="5jcE9SZnteggqBsjyxye-27" style="edgeStyle=orthogonalEdgeStyle;rounded=0;orthogonalLoop=1;jettySize=auto;html=1;entryX=0.5;entryY=1;entryDx=0;entryDy=0;entryPerimeter=0;fontSize=12;startSize=8;endSize=8;" edge="1" parent="5jcE9SZnteggqBsjyxye-47" source="5jcE9SZnteggqBsjyxye-19" target="5jcE9SZnteggqBsjyxye-16">
          <mxGeometry relative="1" as="geometry">
            <Array as="points">
              <mxPoint x="157" y="257" />
              <mxPoint x="129" y="257" />
            </Array>
          </mxGeometry>
        </mxCell>
        <mxCell id="5jcE9SZnteggqBsjyxye-28" style="edgeStyle=orthogonalEdgeStyle;rounded=0;orthogonalLoop=1;jettySize=auto;html=1;entryX=0.5;entryY=1;entryDx=0;entryDy=0;entryPerimeter=0;fontSize=12;startSize=8;endSize=8;" edge="1" parent="5jcE9SZnteggqBsjyxye-47" source="5jcE9SZnteggqBsjyxye-20" target="5jcE9SZnteggqBsjyxye-16">
          <mxGeometry relative="1" as="geometry">
            <Array as="points">
              <mxPoint x="214" y="257" />
              <mxPoint x="129" y="257" />
            </Array>
          </mxGeometry>
        </mxCell>
        <mxCell id="5jcE9SZnteggqBsjyxye-13" value="" style="aspect=fixed;sketch=0;html=1;dashed=0;whitespace=wrap;verticalLabelPosition=bottom;verticalAlign=top;fillColor=#2875E2;strokeColor=#ffffff;points=[[0.005,0.63,0],[0.1,0.2,0],[0.9,0.2,0],[0.5,0,0],[0.995,0.63,0],[0.72,0.99,0],[0.5,1,0],[0.28,0.99,0]];shape=mxgraph.kubernetes.icon2;kubernetesLabel=1;prIcon=rs" vertex="1" parent="5jcE9SZnteggqBsjyxye-47">
          <mxGeometry x="46" y="67" width="30" height="28.8" as="geometry" />
        </mxCell>
        <mxCell id="5jcE9SZnteggqBsjyxye-67" style="edgeStyle=none;curved=1;rounded=0;orthogonalLoop=1;jettySize=auto;html=1;fontSize=12;startSize=8;endSize=8;" edge="1" parent="5jcE9SZnteggqBsjyxye-4" target="5jcE9SZnteggqBsjyxye-11">
          <mxGeometry relative="1" as="geometry">
            <mxPoint x="309" y="100" as="sourcePoint" />
          </mxGeometry>
        </mxCell>
        <mxCell id="5jcE9SZnteggqBsjyxye-69" value="Amazon SQS" style="outlineConnect=0;dashed=1;verticalLabelPosition=middle;verticalAlign=bottom;align=center;fontSize=10;fontStyle=1;spacing=3;shape=mxgraph.aws4.productIcon;prIcon=mxgraph.aws4.sqs;fillColor=default;strokeColor=default;fontColor=#FFFFFF;gradientColor=none;shadow=0;" vertex="1" parent="5jcE9SZnteggqBsjyxye-4">
          <mxGeometry x="410" y="8" width="80" height="100" as="geometry" />
        </mxCell>
        <mxCell id="5jcE9SZnteggqBsjyxye-70" style="edgeStyle=none;curved=1;rounded=0;orthogonalLoop=1;jettySize=auto;html=1;fontSize=12;startSize=8;endSize=8;" edge="1" parent="5jcE9SZnteggqBsjyxye-4" source="5jcE9SZnteggqBsjyxye-11" target="5jcE9SZnteggqBsjyxye-69">
          <mxGeometry relative="1" as="geometry" />
        </mxCell>
        <mxCell id="5jcE9SZnteggqBsjyxye-71" style="edgeStyle=none;curved=1;rounded=0;orthogonalLoop=1;jettySize=auto;html=1;fontSize=12;startSize=8;endSize=8;" edge="1" parent="5jcE9SZnteggqBsjyxye-4" source="5jcE9SZnteggqBsjyxye-30" target="5jcE9SZnteggqBsjyxye-69">
          <mxGeometry relative="1" as="geometry" />
        </mxCell>
        <mxCell id="5jcE9SZnteggqBsjyxye-72" value="Amazon Cognito" style="sketch=0;outlineConnect=0;fontColor=light-dark(#ffffff, #bdc7d4);gradientColor=none;strokeColor=#000000;fillColor=default;dashed=0;verticalLabelPosition=middle;verticalAlign=bottom;align=center;html=1;whiteSpace=wrap;fontSize=10;fontStyle=1;spacing=3;shape=mxgraph.aws4.productIcon;prIcon=mxgraph.aws4.cognito;" vertex="1" parent="5jcE9SZnteggqBsjyxye-4">
          <mxGeometry x="270" y="8" width="80" height="110" as="geometry" />
        </mxCell>
        <mxCell id="5jcE9SZnteggqBsjyxye-74" value="Amazon S3" style="sketch=0;outlineConnect=0;fontColor=light-dark(#ffffff, #ededed);gradientColor=none;strokeColor=#000000;fillColor=#FFFFFF;dashed=0;verticalLabelPosition=middle;verticalAlign=bottom;align=center;html=1;whiteSpace=wrap;fontSize=10;fontStyle=1;spacing=3;shape=mxgraph.aws4.productIcon;prIcon=mxgraph.aws4.s3;" vertex="1" parent="5jcE9SZnteggqBsjyxye-4">
          <mxGeometry x="590" y="13" width="80" height="100" as="geometry" />
        </mxCell>
        <mxCell id="5jcE9SZnteggqBsjyxye-75" style="edgeStyle=none;curved=1;rounded=0;orthogonalLoop=1;jettySize=auto;html=1;fontSize=12;startSize=8;endSize=8;" edge="1" parent="5jcE9SZnteggqBsjyxye-4" source="5jcE9SZnteggqBsjyxye-11" target="5jcE9SZnteggqBsjyxye-74">
          <mxGeometry relative="1" as="geometry" />
        </mxCell>
        <mxCell id="5jcE9SZnteggqBsjyxye-76" style="edgeStyle=none;curved=1;rounded=0;orthogonalLoop=1;jettySize=auto;html=1;fontSize=12;startSize=8;endSize=8;" edge="1" parent="5jcE9SZnteggqBsjyxye-4" source="5jcE9SZnteggqBsjyxye-30" target="5jcE9SZnteggqBsjyxye-74">
          <mxGeometry relative="1" as="geometry" />
        </mxCell>
        <mxCell id="5jcE9SZnteggqBsjyxye-77" value="DynamoDB" style="outlineConnect=0;dashed=0;verticalLabelPosition=bottom;verticalAlign=top;align=center;html=1;shape=mxgraph.aws3.dynamo_db;fillColor=#2E73B8;gradientColor=none;" vertex="1" parent="5jcE9SZnteggqBsjyxye-4">
          <mxGeometry x="858" y="13" width="72" height="81" as="geometry" />
        </mxCell>
        <mxCell id="5jcE9SZnteggqBsjyxye-78" style="edgeStyle=none;curved=1;rounded=0;orthogonalLoop=1;jettySize=auto;html=1;entryX=0.5;entryY=1;entryDx=0;entryDy=0;entryPerimeter=0;fontSize=12;startSize=8;endSize=8;" edge="1" parent="5jcE9SZnteggqBsjyxye-4" source="5jcE9SZnteggqBsjyxye-11" target="5jcE9SZnteggqBsjyxye-77">
          <mxGeometry relative="1" as="geometry" />
        </mxCell>
        <mxCell id="5jcE9SZnteggqBsjyxye-79" style="edgeStyle=none;curved=1;rounded=0;orthogonalLoop=1;jettySize=auto;html=1;entryX=0.5;entryY=1;entryDx=0;entryDy=0;entryPerimeter=0;fontSize=12;startSize=8;endSize=8;" edge="1" parent="5jcE9SZnteggqBsjyxye-4" source="5jcE9SZnteggqBsjyxye-30" target="5jcE9SZnteggqBsjyxye-77">
          <mxGeometry relative="1" as="geometry" />
        </mxCell>
        <mxCell id="5jcE9SZnteggqBsjyxye-81" value="Amazon Simple Email Service" style="sketch=0;outlineConnect=0;fontColor=light-dark(#fafcff, #bdc7d4);gradientColor=none;strokeColor=#000000;fillColor=#FFFFFF;dashed=0;verticalLabelPosition=middle;verticalAlign=bottom;align=center;html=1;whiteSpace=wrap;fontSize=10;fontStyle=1;spacing=3;shape=mxgraph.aws4.productIcon;prIcon=mxgraph.aws4.simple_email_service;" vertex="1" parent="5jcE9SZnteggqBsjyxye-4">
          <mxGeometry x="858" y="227" width="80" height="110" as="geometry" />
        </mxCell>
        <mxCell id="5jcE9SZnteggqBsjyxye-82" style="edgeStyle=none;curved=1;rounded=0;orthogonalLoop=1;jettySize=auto;html=1;fontSize=12;startSize=8;endSize=8;" edge="1" parent="5jcE9SZnteggqBsjyxye-4" source="5jcE9SZnteggqBsjyxye-30" target="5jcE9SZnteggqBsjyxye-81">
          <mxGeometry relative="1" as="geometry" />
        </mxCell>
        <mxCell id="5jcE9SZnteggqBsjyxye-84" value="Amazon API Gateway" style="sketch=0;outlineConnect=0;fontColor=#FFFFFF;gradientColor=none;strokeColor=#000000;fillColor=#FFFFFF;dashed=0;verticalLabelPosition=middle;verticalAlign=bottom;align=center;html=1;whiteSpace=wrap;fontSize=10;fontStyle=1;spacing=3;shape=mxgraph.aws4.productIcon;prIcon=mxgraph.aws4.api_gateway;" vertex="1" parent="5jcE9SZnteggqBsjyxye-4">
          <mxGeometry x="131" y="7" width="80" height="110" as="geometry" />
        </mxCell>
        <mxCell id="5jcE9SZnteggqBsjyxye-85" style="edgeStyle=none;curved=1;rounded=0;orthogonalLoop=1;jettySize=auto;html=1;entryX=0.147;entryY=0.005;entryDx=0;entryDy=0;entryPerimeter=0;fontSize=12;startSize=8;endSize=8;" edge="1" parent="5jcE9SZnteggqBsjyxye-4" source="5jcE9SZnteggqBsjyxye-84" target="5jcE9SZnteggqBsjyxye-5">
          <mxGeometry relative="1" as="geometry" />
        </mxCell>
        <mxCell id="5jcE9SZnteggqBsjyxye-88" style="edgeStyle=none;curved=1;rounded=0;orthogonalLoop=1;jettySize=auto;html=1;fontSize=12;startSize=8;endSize=8;" edge="1" parent="1" source="5jcE9SZnteggqBsjyxye-86" target="5jcE9SZnteggqBsjyxye-84">
          <mxGeometry relative="1" as="geometry" />
        </mxCell>
        <mxCell id="5jcE9SZnteggqBsjyxye-86" value="" style="image;aspect=fixed;perimeter=ellipsePerimeter;html=1;align=center;shadow=0;dashed=0;spacingTop=3;image=img/lib/active_directory/internet_cloud.svg;" vertex="1" parent="1">
          <mxGeometry x="-408.57" y="70" width="107.14" height="67.5" as="geometry" />
        </mxCell>
      </root>
    </mxGraphModel>
  </diagram>
</mxfile>
